<svg width="359" height="232" viewBox="0 0 359 232" fill="none" xmlns="http://www.w3.org/2000/svg">
<path d="M67.12 64H22.48L13.24 85H0.88L38.92 0.999994H50.8L88.96 85H76.36L67.12 64ZM62.92 54.4L44.8 13.24L26.68 54.4H62.92ZM200.011 41.44C204.891 42.8 208.731 45.28 211.531 48.88C214.331 52.4 215.731 56.88 215.731 62.32C215.731 69.6 212.971 75.2 207.451 79.12C202.011 83.04 194.051 85 183.571 85H143.491V0.999994H181.171C190.771 0.999994 198.171 2.92 203.371 6.76C208.651 10.6 211.291 15.92 211.291 22.72C211.291 27.12 210.251 30.92 208.171 34.12C206.171 37.32 203.451 39.76 200.011 41.44ZM155.491 10.72V37.6H180.091C186.251 37.6 190.971 36.48 194.251 34.24C197.611 31.92 199.291 28.56 199.291 24.16C199.291 19.76 197.611 16.44 194.251 14.2C190.971 11.88 186.251 10.72 180.091 10.72H155.491ZM183.091 75.28C189.891 75.28 195.011 74.16 198.451 71.92C201.891 69.68 203.611 66.16 203.611 61.36C203.611 52 196.771 47.32 183.091 47.32H155.491V75.28H183.091ZM314.231 85.96C305.751 85.96 298.111 84.12 291.311 80.44C284.511 76.68 279.151 71.52 275.231 64.96C271.391 58.4 269.471 51.08 269.471 43C269.471 34.92 271.391 27.6 275.231 21.04C279.151 14.48 284.511 9.36 291.311 5.68C298.111 1.92 305.751 0.0399995 314.231 0.0399995C322.631 0.0399995 330.231 1.92 337.031 5.68C343.831 9.36 349.151 14.48 352.991 21.04C356.831 27.52 358.751 34.84 358.751 43C358.751 51.16 356.831 58.52 352.991 65.08C349.151 71.56 343.831 76.68 337.031 80.44C330.231 84.12 322.631 85.96 314.231 85.96ZM314.231 75.28C320.391 75.28 325.911 73.88 330.791 71.08C335.751 68.28 339.631 64.44 342.431 59.56C345.311 54.6 346.751 49.08 346.751 43C346.751 36.92 345.311 31.44 342.431 26.56C339.631 21.6 335.751 17.72 330.791 14.92C325.911 12.12 320.391 10.72 314.231 10.72C308.071 10.72 302.471 12.12 297.431 14.92C292.471 17.72 288.551 21.6 285.671 26.56C282.871 31.44 281.471 36.92 281.471 43C281.471 49.08 282.871 54.6 285.671 59.56C288.551 64.44 292.471 68.28 297.431 71.08C302.471 73.88 308.071 75.28 314.231 75.28ZM48.4 231.96C37.2 231.96 28.48 228.76 22.24 222.36C16 215.96 12.88 206.76 12.88 194.76V147H24.88V194.28C24.88 212.28 32.76 221.28 48.52 221.28C56.2 221.28 62.08 219.08 66.16 214.68C70.24 210.2 72.28 203.4 72.28 194.28V147H83.92V194.76C83.92 206.84 80.8 216.08 74.56 222.48C68.32 228.8 59.6 231.96 48.4 231.96ZM165.678 157.44H136.878V147H206.358V157.44H177.558V231H165.678V157.44Z" fill="#FFFCF5"/>
</svg>
