<svg width="73" height="46" viewBox="0 0 73 46" fill="none" xmlns="http://www.w3.org/2000/svg">
<path d="M5.264 32.428C6.51467 32.428 7.49467 32.7267 8.204 33.324C8.91333 33.9214 9.268 34.7427 9.268 35.788C9.268 36.8334 8.91333 37.6547 8.204 38.252C7.49467 38.84 6.51467 39.134 5.264 39.134H2.632V42.228H1.596V32.428H5.264ZM5.236 38.224C6.20667 38.224 6.94867 38.014 7.462 37.594C7.97533 37.1647 8.232 36.5627 8.232 35.788C8.232 34.9947 7.97533 34.388 7.462 33.968C6.94867 33.5387 6.20667 33.324 5.236 33.324H2.632V38.224H5.236ZM17.1619 39.61H11.7019L10.5259 42.228H9.44792L13.9279 32.428H14.9499L19.4299 42.228H18.3379L17.1619 39.61ZM16.7839 38.77L14.4319 33.506L12.0799 38.77H16.7839ZM27.8164 37.328H28.8104V41.066C28.353 41.4674 27.8117 41.7754 27.1864 41.99C26.561 42.2047 25.903 42.312 25.2124 42.312C24.2324 42.312 23.3504 42.0974 22.5664 41.668C21.7824 41.2387 21.1664 40.646 20.7184 39.89C20.2704 39.1247 20.0464 38.2707 20.0464 37.328C20.0464 36.3854 20.2704 35.536 20.7184 34.78C21.1664 34.0147 21.7824 33.4174 22.5664 32.988C23.3504 32.5587 24.237 32.344 25.2264 32.344C25.973 32.344 26.659 32.4654 27.2844 32.708C27.9097 32.9414 28.437 33.2914 28.8664 33.758L28.2224 34.416C27.4477 33.6507 26.463 33.268 25.2684 33.268C24.475 33.268 23.7564 33.4454 23.1124 33.8C22.4777 34.1454 21.9784 34.6307 21.6144 35.256C21.2504 35.872 21.0684 36.5627 21.0684 37.328C21.0684 38.0934 21.2504 38.784 21.6144 39.4C21.9784 40.016 22.4777 40.5014 23.1124 40.856C23.747 41.2107 24.461 41.388 25.2544 41.388C26.2624 41.388 27.1164 41.136 27.8164 40.632V37.328ZM38.6725 41.332V42.228H31.7425V32.428H38.4625V33.324H32.7785V36.81H37.8465V37.692H32.7785V41.332H38.6725ZM46.6758 33.324H43.2318V32.428H51.1558V33.324H47.7118V42.228H46.6758V33.324ZM56.9581 42.312C55.9875 42.312 55.1055 42.0974 54.3121 41.668C53.5281 41.2294 52.9121 40.632 52.4641 39.876C52.0255 39.12 51.8061 38.2707 51.8061 37.328C51.8061 36.3854 52.0255 35.536 52.4641 34.78C52.9121 34.024 53.5281 33.4314 54.3121 33.002C55.1055 32.5634 55.9875 32.344 56.9581 32.344C57.9288 32.344 58.8015 32.5587 59.5761 32.988C60.3601 33.4174 60.9761 34.0147 61.4241 34.78C61.8721 35.536 62.0961 36.3854 62.0961 37.328C62.0961 38.2707 61.8721 39.1247 61.4241 39.89C60.9761 40.646 60.3601 41.2387 59.5761 41.668C58.8015 42.0974 57.9288 42.312 56.9581 42.312ZM56.9581 41.388C57.7328 41.388 58.4328 41.2154 59.0581 40.87C59.6835 40.5154 60.1735 40.03 60.5281 39.414C60.8828 38.7887 61.0601 38.0934 61.0601 37.328C61.0601 36.5627 60.8828 35.872 60.5281 35.256C60.1735 34.6307 59.6835 34.1454 59.0581 33.8C58.4328 33.4454 57.7328 33.268 56.9581 33.268C56.1835 33.268 55.4788 33.4454 54.8441 33.8C54.2188 34.1454 53.7241 34.6307 53.3601 35.256C53.0055 35.872 52.8281 36.5627 52.8281 37.328C52.8281 38.0934 53.0055 38.7887 53.3601 39.414C53.7241 40.03 54.2188 40.5154 54.8441 40.87C55.4788 41.2154 56.1835 41.388 56.9581 41.388ZM68.0863 32.428C69.3369 32.428 70.3169 32.7267 71.0263 33.324C71.7356 33.9214 72.0903 34.7427 72.0903 35.788C72.0903 36.8334 71.7356 37.6547 71.0263 38.252C70.3169 38.84 69.3369 39.134 68.0863 39.134H65.4543V42.228H64.4183V32.428H68.0863ZM68.0583 38.224C69.0289 38.224 69.7709 38.014 70.2843 37.594C70.7976 37.1647 71.0543 36.5627 71.0543 35.788C71.0543 34.9947 70.7976 34.388 70.2843 33.968C69.7709 33.5387 69.0289 33.324 68.0583 33.324H65.4543V38.224H68.0583Z" fill="black"/>
<path d="M36.2278 2.00021L36.9349 1.2931L36.2278 0.585992L35.5207 1.2931L36.2278 2.00021ZM17.7071 21.9351L36.9349 2.70731L35.5207 1.2931L16.2929 20.5209L17.7071 21.9351ZM35.5207 2.70731L54.7485 21.9351L56.1627 20.5209L36.9349 1.2931L35.5207 2.70731Z" fill="black"/>
</svg>
