<svg width="121" height="48" viewBox="0 0 121 48" fill="none" xmlns="http://www.w3.org/2000/svg">
<rect x="0.5" y="0.5" width="51" height="45" fill="black" stroke="black"/>
<path d="M10 46C10 43.3609 10.2176 41.0384 10.6528 39.0327C11.0879 37.027 11.7951 35.2324 12.7742 33.6489C13.7533 32.0654 15.0044 30.6139 16.5275 29.2943C18.105 27.9748 20.0361 26.7344 22.3207 25.5732C25.2581 24.0425 27.5971 22.8021 29.3378 21.852C31.0784 20.9019 32.3567 20.1629 33.1727 19.6351C34.043 19.0545 34.587 18.5795 34.8046 18.21C35.0765 17.7877 35.2125 17.3391 35.2125 16.864C35.2125 15.9667 34.9949 15.2542 34.5598 14.7263C34.179 14.1457 33.635 13.7235 32.9279 13.4596C32.2207 13.1429 31.3504 12.9845 30.3169 12.9845C29.4466 12.9845 28.5762 13.0901 27.7059 13.3012C26.8899 13.5123 26.074 13.8554 25.2581 14.3305C24.4421 14.8055 23.599 15.4125 22.7287 16.1515C21.9127 16.8376 21.0696 17.6822 20.1992 18.685L10.408 7.52152C11.4959 6.41308 12.8286 5.41021 14.4061 4.51291C16.038 3.56282 17.833 2.77108 19.7913 2.1377C21.8039 1.45152 23.9254 0.923696 26.1556 0.55422C28.3858 0.184741 30.6705 0 33.0095 0C37.1436 0 40.6249 0.580609 43.4535 1.74183C46.2821 2.85026 48.4307 4.46012 49.8994 6.57143C51.3681 8.68273 52.1025 11.2427 52.1025 14.2513C52.1025 15.8876 51.8849 17.3655 51.4497 18.685C51.0145 19.9518 50.4162 21.0866 49.6546 22.0895C48.8931 23.0924 47.9956 24.0161 46.962 24.8606C45.9829 25.7051 44.9222 26.4968 43.7799 27.2358C42.9639 27.6581 42.0936 28.1067 41.1689 28.5818C40.2985 29.004 39.401 29.4263 38.4763 29.8485C37.5515 30.2708 36.6268 30.7195 35.7021 31.1945C34.7774 31.6168 33.8526 32.0654 32.9279 32.5404H53V46H10Z" fill="#FFFCF5"/>
<rect x="1" y="1" width="119" height="46" stroke="black" stroke-width="2"/>
<path d="M61.298 21.084C60.57 21.084 59.87 20.9673 59.198 20.734C58.5353 20.5007 58.022 20.1927 57.658 19.81L58.064 19.012C58.4187 19.3667 58.89 19.656 59.478 19.88C60.066 20.0947 60.6727 20.202 61.298 20.202C62.1753 20.202 62.8333 20.0433 63.272 19.726C63.7107 19.3993 63.93 18.9793 63.93 18.466C63.93 18.074 63.8087 17.7613 63.566 17.528C63.3327 17.2947 63.0433 17.1173 62.698 16.996C62.3527 16.8653 61.872 16.7253 61.256 16.576C60.5187 16.3893 59.9307 16.212 59.492 16.044C59.0533 15.8667 58.6753 15.6007 58.358 15.246C58.05 14.8913 57.896 14.4107 57.896 13.804C57.896 13.3093 58.0267 12.8613 58.288 12.46C58.5493 12.0493 58.9507 11.7227 59.492 11.48C60.0333 11.2373 60.7053 11.116 61.508 11.116C62.068 11.116 62.614 11.1953 63.146 11.354C63.6873 11.5033 64.154 11.7133 64.546 11.984L64.196 12.81C63.7853 12.5393 63.3467 12.3387 62.88 12.208C62.4133 12.068 61.956 11.998 61.508 11.998C60.6493 11.998 60.0007 12.166 59.562 12.502C59.1327 12.8287 58.918 13.2533 58.918 13.776C58.918 14.168 59.0347 14.4853 59.268 14.728C59.5107 14.9613 59.8093 15.1433 60.164 15.274C60.528 15.3953 61.0133 15.5307 61.62 15.68C62.3387 15.8573 62.9173 16.0347 63.356 16.212C63.804 16.38 64.182 16.6413 64.49 16.996C64.798 17.3413 64.952 17.8127 64.952 18.41C64.952 18.9047 64.8167 19.3573 64.546 19.768C64.2847 20.1693 63.8787 20.4913 63.328 20.734C62.7773 20.9673 62.1007 21.084 61.298 21.084ZM74.1393 20.104V21H67.2093V11.2H73.9293V12.096H68.2453V15.582H73.3133V16.464H68.2453V20.104H74.1393ZM84.7645 11.2V21H83.9105L77.6105 13.048V21H76.5745V11.2H77.4285L83.7425 19.152V11.2H84.7645ZM87.9632 11.2H91.9532C92.9892 11.2 93.9039 11.41 94.6972 11.83C95.4905 12.2407 96.1065 12.8193 96.5452 13.566C96.9839 14.3033 97.2032 15.148 97.2032 16.1C97.2032 17.052 96.9839 17.9013 96.5452 18.648C96.1065 19.3853 95.4905 19.964 94.6972 20.384C93.9039 20.7947 92.9892 21 91.9532 21H87.9632V11.2ZM91.8972 20.104C92.7559 20.104 93.5072 19.936 94.1512 19.6C94.7952 19.2547 95.2945 18.7833 95.6492 18.186C96.0039 17.5793 96.1812 16.884 96.1812 16.1C96.1812 15.316 96.0039 14.6253 95.6492 14.028C95.2945 13.4213 94.7952 12.95 94.1512 12.614C93.5072 12.2687 92.7559 12.096 91.8972 12.096H88.9992V20.104H91.8972ZM109.34 18.382H103.88L102.704 21H101.626L106.106 11.2H107.128L111.608 21H110.516L109.34 18.382ZM108.962 17.542L106.61 12.278L104.258 17.542H108.962ZM62.264 28.2C63.5147 28.2 64.4947 28.4987 65.204 29.096C65.9133 29.6933 66.268 30.5147 66.268 31.56C66.268 32.6053 65.9133 33.4267 65.204 34.024C64.4947 34.612 63.5147 34.906 62.264 34.906H59.632V38H58.596V28.2H62.264ZM62.236 33.996C63.2067 33.996 63.9487 33.786 64.462 33.366C64.9753 32.9367 65.232 32.3347 65.232 31.56C65.232 30.7667 64.9753 30.16 64.462 29.74C63.9487 29.3107 63.2067 29.096 62.236 29.096H59.632V33.996H62.236ZM68.5081 28.2H69.5441V38H68.5081V28.2ZM79.6347 33.1H80.6287V36.838C80.1714 37.2393 79.6301 37.5473 79.0047 37.762C78.3794 37.9767 77.7214 38.084 77.0307 38.084C76.0507 38.084 75.1687 37.8693 74.3847 37.44C73.6007 37.0107 72.9847 36.418 72.5367 35.662C72.0887 34.8967 71.8647 34.0427 71.8647 33.1C71.8647 32.1573 72.0887 31.308 72.5367 30.552C72.9847 29.7867 73.6007 29.1893 74.3847 28.76C75.1687 28.3307 76.0554 28.116 77.0447 28.116C77.7914 28.116 78.4774 28.2373 79.1027 28.48C79.7281 28.7133 80.2554 29.0633 80.6847 29.53L80.0407 30.188C79.2661 29.4227 78.2814 29.04 77.0867 29.04C76.2934 29.04 75.5747 29.2173 74.9307 29.572C74.2961 29.9173 73.7967 30.4027 73.4327 31.028C73.0687 31.644 72.8867 32.3347 72.8867 33.1C72.8867 33.8653 73.0687 34.556 73.4327 35.172C73.7967 35.788 74.2961 36.2733 74.9307 36.628C75.5654 36.9827 76.2794 37.16 77.0727 37.16C78.0807 37.16 78.9347 36.908 79.6347 36.404V33.1ZM90.4908 37.104V38H83.5608V28.2H90.2808V29.096H84.5968V32.582H89.6648V33.464H84.5968V37.104H90.4908ZM97.1554 38.084C96.1847 38.084 95.3027 37.8693 94.5094 37.44C93.7254 37.0013 93.1094 36.404 92.6614 35.648C92.2227 34.892 92.0034 34.0427 92.0034 33.1C92.0034 32.1573 92.2227 31.308 92.6614 30.552C93.1094 29.796 93.7254 29.2033 94.5094 28.774C95.3027 28.3353 96.1847 28.116 97.1554 28.116C98.1261 28.116 98.9987 28.3307 99.7734 28.76C100.557 29.1893 101.173 29.7867 101.621 30.552C102.069 31.308 102.293 32.1573 102.293 33.1C102.293 34.0427 102.069 34.8967 101.621 35.662C101.173 36.418 100.557 37.0107 99.7734 37.44C98.9987 37.8693 98.1261 38.084 97.1554 38.084ZM97.1554 37.16C97.9301 37.16 98.6301 36.9873 99.2554 36.642C99.8807 36.2873 100.371 35.802 100.725 35.186C101.08 34.5607 101.257 33.8653 101.257 33.1C101.257 32.3347 101.08 31.644 100.725 31.028C100.371 30.4027 99.8807 29.9173 99.2554 29.572C98.6301 29.2173 97.9301 29.04 97.1554 29.04C96.3807 29.04 95.6761 29.2173 95.0414 29.572C94.4161 29.9173 93.9214 30.4027 93.5574 31.028C93.2027 31.644 93.0254 32.3347 93.0254 33.1C93.0254 33.8653 93.2027 34.5607 93.5574 35.186C93.9214 35.802 94.4161 36.2873 95.0414 36.642C95.6761 36.9873 96.3807 37.16 97.1554 37.16ZM112.806 28.2V38H111.952L105.652 30.048V38H104.616V28.2H105.47L111.784 36.152V28.2H112.806Z" fill="black"/>
<rect x="53" y="1" width="67" height="46" stroke="black" stroke-width="2"/>
</svg>
